<?xml version="1.0" standalone="no"?>
<!DOCTYPE svg PUBLIC "-//W3C//DTD SVG 20010904//EN"
 "http://www.w3.org/TR/2001/REC-SVG-20010904/DTD/svg10.dtd">
<svg version="1.0" xmlns="http://www.w3.org/2000/svg"
 width="256.000000pt" height="256.000000pt" viewBox="0 0 256.000000 256.000000"
 preserveAspectRatio="xMidYMid meet">

<g transform="translate(0.000000,256.000000) scale(0.100000,-0.100000)"
fill="#000000" stroke="none">
<path d="M910 2320 c0 -5 5 -10 10 -10 6 0 10 5 10 10 0 6 -4 10 -10 10 -5 0
-10 -4 -10 -10z"/>
<path d="M1766 2241 c-4 -5 -2 -12 3 -15 5 -4 12 -2 15 3 4 5 2 12 -3 15 -5 4
-12 2 -15 -3z"/>
<path d="M1876 2155 c4 -8 8 -15 11 -15 2 0 11 7 19 15 14 13 13 15 -10 15
-18 0 -24 -4 -20 -15z"/>
<path d="M1330 2100 c0 -5 0 -13 0 -17 0 -5 3 -8 8 -8 4 0 13 -4 20 -9 8 -5
18 -3 25 4 9 10 9 11 0 6 -7 -4 -21 2 -33 14 -11 11 -20 16 -20 10z"/>
<path d="M1195 2080 c-16 -7 -17 -9 -3 -9 9 -1 20 4 23 9 7 11 7 11 -20 0z"/>
<path d="M1232 2068 c-14 -14 -17 -293 -4 -284 10 6 9 -30 -1 -40 -4 -4 -7 0
-7 9 0 10 -4 17 -10 17 -5 0 -6 -8 -3 -17 5 -13 2 -15 -13 -10 -19 7 -19 7 0
-8 11 -8 35 -15 53 -15 l33 0 0 180 c0 167 -1 180 -18 180 -10 0 -23 -5 -30
-12z"/>
<path d="M1398 2053 c7 -3 16 -2 19 1 4 3 -2 6 -13 5 -11 0 -14 -3 -6 -6z"/>
<path d="M1106 2035 c-16 -12 -17 -15 -4 -15 9 0 18 7 22 15 7 18 6 18 -18 0z"/>
<path d="M1334 1920 c0 -74 1 -105 3 -67 2 37 2 97 0 135 -2 37 -3 6 -3 -68z"/>
<path d="M994 1999 c-9 -16 2 -22 21 -11 15 8 16 10 1 15 -8 3 -18 2 -22 -4z"/>
<path d="M1045 1990 c-3 -5 -2 -10 4 -10 5 0 13 5 16 10 3 6 2 10 -4 10 -5 0
-13 -4 -16 -10z"/>
<path d="M1490 1994 c0 -3 15 -12 33 -20 17 -8 42 -21 55 -30 12 -9 22 -12 22
-6 0 6 -8 13 -17 15 -17 4 -17 5 0 6 31 2 19 30 -15 35 -44 6 -78 6 -78 0z"/>
<path d="M999 1963 c-13 -15 -12 -15 9 -4 23 12 28 21 13 21 -5 0 -15 -7 -22
-17z"/>
<path d="M1667 1926 c-4 -9 -11 -14 -17 -11 -5 3 -10 2 -10 -3 0 -6 7 -13 15
-16 17 -6 30 15 23 36 -3 8 -7 6 -11 -6z"/>
<path d="M180 1281 l0 -639 543 -313 c298 -173 551 -314 562 -313 11 0 261
140 555 311 l535 311 3 639 2 639 -25 2 c-15 1 -24 -2 -20 -7 6 -12 -35 -42
-47 -35 -4 3 -8 1 -8 -4 0 -15 -188 -114 -201 -106 -8 4 -9 3 -5 -4 9 -15 1
-15 -25 -2 -13 7 -19 7 -19 0 0 -5 8 -10 18 -10 14 -1 13 -4 -7 -21 -15 -12
-33 -18 -44 -15 -15 4 -17 2 -8 -7 8 -8 11 -119 11 -389 0 -208 -2 -378 -4
-378 -3 0 -58 31 -123 69 l-118 69 -3 151 c-2 114 -6 153 -16 157 -14 6 -304
-159 -323 -184 -15 -19 -18 -348 -4 -371 7 -10 38 4 141 64 128 75 134 77 159
63 206 -118 224 -131 205 -141 -11 -6 -158 -91 -328 -189 l-308 -178 -324 186
c-178 103 -324 190 -324 193 1 7 234 141 246 141 5 0 63 -31 130 -70 66 -38
126 -70 133 -70 8 0 11 54 11 188 l0 188 -161 93 c-88 51 -163 91 -166 88 -3
-3 -4 -72 -4 -154 l2 -149 -125 -72 c-69 -40 -127 -72 -130 -72 -3 0 -6 185
-6 410 0 270 -3 410 -10 410 -6 0 -19 -5 -30 -12 -16 -10 -23 -9 -45 12 -14
13 -25 20 -25 16 0 -3 -13 0 -30 9 -19 10 -27 20 -24 30 4 10 0 15 -11 15 -9
0 -13 -5 -10 -10 3 -6 -11 0 -31 12 -38 22 -38 22 -13 30 16 5 12 6 -13 2 -21
-3 -38 -1 -38 4 0 6 -12 13 -27 17 -22 5 -24 8 -12 16 10 8 9 9 -8 4 -12 -3
-24 -1 -28 5 -3 5 -10 10 -16 10 -5 0 -9 -246 -9 -639z"/>
<path d="M910 1909 c0 -5 5 -7 10 -4 6 3 10 8 10 11 0 2 -4 4 -10 4 -5 0 -10
-5 -10 -11z"/>
<path d="M840 1870 c-8 -5 -10 -10 -5 -10 6 0 17 5 25 10 8 5 11 10 5 10 -5 0
-17 -5 -25 -10z"/>
<path d="M1693 1875 c1 -1 32 -18 69 -39 l67 -36 -14 27 c-8 16 -15 33 -15 39
0 8 -20 12 -55 11 -30 -1 -53 -2 -52 -2z m77 -15 c0 -5 -5 -10 -11 -10 -5 0
-7 5 -4 10 3 6 8 10 11 10 2 0 4 -4 4 -10z"/>
<path d="M2243 1863 c0 -9 4 -10 14 -2 7 6 13 12 13 14 0 1 -6 2 -13 2 -8 0
-14 -6 -14 -14z"/>
<path d="M796 1856 c4 -11 1 -16 -10 -16 -9 0 -16 -5 -16 -11 0 -8 7 -7 21 2
22 15 27 31 10 37 -6 2 -8 -3 -5 -12z"/>
<path d="M2167 1846 c-7 -19 4 -27 21 -17 10 6 10 10 -1 20 -12 9 -16 8 -20
-3z"/>
<path d="M721 1814 c6 -7 17 -10 25 -7 20 7 18 10 -11 15 -20 4 -23 2 -14 -8z"/>
<path d="M2110 1800 c0 -5 5 -10 11 -10 5 0 7 5 4 10 -3 6 -8 10 -11 10 -2 0
-4 -4 -4 -10z"/>
<path d="M684 1785 c-10 -8 -14 -14 -9 -14 6 0 19 6 29 14 11 8 15 15 10 15
-6 0 -19 -7 -30 -15z"/>
<path d="M1854 1786 c11 -9 24 -16 30 -16 12 0 7 5 -24 19 -24 11 -24 11 -6
-3z"/>
<path d="M1322 1760 c8 -13 15 -16 19 -8 10 15 2 28 -17 28 -12 0 -12 -4 -2
-20z"/>
<path d="M604 1748 c-9 -14 12 -16 36 -3 l25 13 -29 -1 c-15 -1 -30 -5 -32 -9z"/>
<path d="M1350 1751 c0 -4 20 -16 44 -25 31 -12 43 -22 39 -32 -3 -8 1 -14 11
-14 9 0 16 -8 16 -20 0 -22 38 -28 56 -10 7 7 9 2 6 -18 -3 -22 1 -30 15 -34
11 -3 28 1 38 8 16 12 16 14 1 29 -9 9 -21 13 -27 9 -7 -4 -9 -3 -6 3 8 12
-60 49 -82 44 -7 -1 -11 2 -7 7 3 5 -17 21 -44 35 -55 30 -60 31 -60 18z m220
-131 c0 -5 -4 -10 -10 -10 -5 0 -10 5 -10 10 0 6 5 10 10 10 6 0 10 -4 10 -10z"/>
<path d="M1921 1747 c2 -2 11 -8 20 -15 12 -9 16 -9 16 1 0 7 -9 14 -20 14
-11 1 -18 1 -16 0z"/>
<path d="M1085 1699 c-38 -22 -76 -46 -85 -54 -9 -8 -22 -15 -28 -15 -23 0
-12 -15 28 -38 29 -16 38 -18 34 -7 -3 8 -10 13 -14 10 -4 -3 -13 2 -20 10
-18 22 5 47 36 39 20 -5 24 -2 24 15 0 12 3 22 8 22 4 1 20 3 37 5 16 2 31 7
33 11 1 4 7 15 12 23 9 13 11 13 21 0 9 -12 10 -12 7 -1 -7 24 -19 21 -93 -20z"/>
<path d="M1351 1714 c0 -11 3 -14 6 -6 3 7 2 16 -1 19 -3 4 -6 -2 -5 -13z"/>
<path d="M1061 1556 c14 -12 50 -26 45 -18 -3 6 0 12 6 15 7 2 -2 4 -21 5 -18
0 -31 -1 -30 -2z"/>
<path d="M1470 1549 c0 -5 5 -7 10 -4 6 3 10 8 10 11 0 2 -4 4 -10 4 -5 0 -10
-5 -10 -11z"/>
<path d="M1140 1514 c0 -2 9 -8 20 -14 11 -6 20 -7 20 -2 0 6 -9 12 -20 15
-11 3 -20 3 -20 1z"/>
<path d="M1409 1515 c-3 -2 -14 -6 -26 -8 -20 -3 -53 -29 -53 -42 0 -3 13 3
29 14 16 12 34 21 39 21 6 0 14 5 17 10 6 10 2 14 -6 5z"/>
<path d="M1190 1484 c0 -2 9 -8 20 -14 11 -6 20 -7 20 -2 0 6 -9 12 -20 15
-11 3 -20 3 -20 1z"/>
<path d="M1290 1480 c0 -5 5 -10 11 -10 5 0 7 5 4 10 -3 6 -8 10 -11 10 -2 0
-4 -4 -4 -10z"/>
<path d="M1246 1473 c5 -5 12 -12 16 -18 4 -6 8 -2 8 8 0 9 -7 17 -17 17 -9 0
-12 -3 -7 -7z"/>
<path d="M1280 1445 c-16 -19 -1 -19 24 0 16 12 17 15 4 15 -8 0 -21 -7 -28
-15z"/>
</g>
</svg>
